<svg id="svg" version="1.1" width="412" height="412" xmlns="http://www.w3.org/2000/svg" xmlns:xlink="http://www.w3.org/1999/xlink" style="display: block;"><g id="svgg"><path id="path0" d="M7.813 91.177 C 5.875 91.885,3.009 94.795,2.199 96.875 C 1.167 99.530,1.156 300.461,2.189 303.125 C 2.605 304.199,3.681 305.740,4.579 306.550 C 5.478 307.359,6.029 308.319,5.805 308.682 C 5.043 309.915,302.750 309.553,305.706 308.318 C 310.971 306.118,310.938 306.329,310.938 274.844 L 310.938 246.509 301.563 255.859 L 292.188 265.210 292.188 277.917 L 292.188 290.625 156.250 290.625 L 20.313 290.625 20.313 200.000 L 20.313 109.375 156.222 109.375 L 292.131 109.375 292.355 116.907 L 292.578 124.439 301.694 115.678 L 310.809 106.916 311.069 101.894 C 311.211 99.132,311.088 96.872,310.795 96.873 C 310.502 96.874,310.031 96.148,309.749 95.259 C 308.164 90.267,320.144 90.625,156.641 90.690 C 75.430 90.722,8.457 90.941,7.813 91.177 M355.370 93.687 C 353.491 94.902,350.563 97.346,348.865 99.120 L 345.777 102.344 348.552 105.273 C 354.588 111.643,371.892 129.646,379.098 137.051 L 386.712 144.876 391.101 140.602 C 401.839 130.147,401.167 122.906,388.201 109.375 C 383.877 104.863,379.199 99.920,377.805 98.389 C 371.369 91.325,362.046 89.371,355.370 93.687 M328.673 118.555 C 323.042 124.033,318.021 128.867,317.516 129.297 C 317.011 129.727,311.536 135.000,305.349 141.016 C 299.162 147.031,289.539 156.348,283.964 161.719 C 278.389 167.090,264.863 180.130,253.906 190.696 C 242.949 201.262,231.875 211.869,229.297 214.266 L 224.609 218.625 227.201 223.887 L 229.792 229.148 234.955 224.144 C 237.795 221.392,240.541 218.789,241.057 218.359 C 241.573 217.930,247.058 212.656,253.244 206.641 C 259.431 200.625,269.058 191.309,274.636 185.938 C 311.838 150.119,329.680 132.888,337.713 125.022 L 346.911 116.016 343.350 112.305 C 338.905 107.672,340.604 106.949,328.673 118.555 M351.172 124.754 C 349.883 125.853,344.258 131.176,338.672 136.582 C 264.981 207.900,257.166 215.344,256.259 215.083 C 255.971 215.000,252.950 217.813,249.547 221.333 L 243.359 227.734 250.000 221.484 L 256.641 215.235 250.041 222.046 C 246.411 225.793,243.319 228.736,243.170 228.587 C 242.165 227.582,234.287 237.561,234.786 239.206 C 236.470 244.751,242.900 251.039,247.010 251.157 C 247.498 251.171,265.113 234.384,290.853 209.375 C 296.823 203.574,302.028 198.711,302.418 198.567 C 302.809 198.423,307.264 194.205,312.318 189.192 C 317.372 184.179,325.897 175.897,331.262 170.787 C 336.626 165.677,346.770 155.903,353.804 149.067 L 366.592 136.638 360.880 130.624 C 357.738 127.316,354.795 124.192,354.341 123.682 C 353.717 122.981,352.943 123.243,351.172 124.754 M46.094 152.734 L 46.094 172.656 67.188 172.656 L 88.281 172.656 88.281 152.734 L 88.281 132.813 67.188 132.813 L 46.094 132.813 46.094 152.734 M128.906 139.844 L 128.906 146.875 192.969 146.875 L 257.031 146.875 257.031 139.844 L 257.031 132.813 192.969 132.813 L 128.906 132.813 128.906 139.844 M363.672 152.098 C 358.945 156.666,350.859 164.434,345.703 169.361 C 340.547 174.288,333.033 181.527,329.006 185.449 C 324.979 189.370,321.956 192.051,322.287 191.406 C 322.619 190.762,321.608 191.446,320.039 192.927 C 317.160 195.645,316.433 196.652,318.089 195.629 C 318.653 195.280,318.779 195.415,318.426 195.986 C 318.115 196.489,317.580 196.727,317.238 196.515 C 316.895 196.303,311.877 200.956,306.086 206.854 C 300.296 212.752,291.196 221.776,285.865 226.906 C 271.822 240.421,256.250 255.688,256.250 255.941 C 256.250 257.054,266.020 261.438,266.799 260.674 C 269.361 258.162,310.884 217.879,314.041 214.844 C 316.052 212.910,323.823 205.378,331.310 198.105 C 352.645 177.380,364.634 165.804,372.461 158.372 C 380.760 150.492,380.572 150.983,376.862 146.877 C 373.123 142.738,373.518 142.582,363.672 152.098 M46.094 197.266 L 46.094 204.688 128.125 204.688 L 210.156 204.688 210.156 197.266 L 210.156 189.844 128.125 189.844 L 46.094 189.844 46.094 197.266 M217.968 225.540 C 217.967 226.088,216.650 233.549,215.236 241.016 C 214.803 243.303,213.574 250.164,212.823 254.485 C 212.617 255.670,211.735 260.632,210.862 265.510 C 209.016 275.828,208.844 275.372,214.196 274.312 C 216.486 273.859,226.445 272.402,236.328 271.076 C 246.211 269.749,255.523 268.407,257.023 268.093 L 259.748 267.524 251.944 263.289 C 247.652 260.961,241.504 257.676,238.281 255.991 L 232.422 252.926 225.781 239.298 C 219.717 226.853,217.971 223.777,217.968 225.540 M46.094 254.297 L 46.094 261.719 119.474 261.719 L 192.854 261.719 193.123 254.883 C 193.271 251.123,193.276 247.783,193.135 247.461 C 192.993 247.139,159.850 246.875,119.485 246.875 L 46.094 246.875 46.094 254.297 " stroke="none" fill="#269ABC" fill-rule="evenodd"></path></g></svg>
